<svg width="20" height="14" viewBox="0 0 20 14" fill="none" xmlns="http://www.w3.org/2000/svg">
<path d="M13.303 7.00018C12.7749 7.00018 12.278 6.71893 12.0092 6.26893L9.99986 2.93768L7.99361 6.26893C7.72173 6.72205 7.22486 7.0033 6.69673 7.0033C6.55611 7.0033 6.41548 6.98455 6.28111 6.94393L1.99986 5.71893V11.2814C1.99986 11.7408 2.31236 12.1408 2.75611 12.2502L9.51236 13.9408C9.83111 14.0189 10.1655 14.0189 10.4811 13.9408L17.2436 12.2502C17.6874 12.1377 17.9999 11.7377 17.9999 11.2814V5.71893L13.7186 6.9408C13.5842 6.98143 13.4436 7.00018 13.303 7.00018ZM19.9467 3.49393L18.3374 0.281429C18.2405 0.0876786 18.0311 -0.0248215 17.8155 0.00330353L9.99986 1.00018L12.8655 5.7533C12.9842 5.95018 13.2217 6.04393 13.4436 5.98143L19.628 4.2158C19.9374 4.12518 20.0874 3.78143 19.9467 3.49393ZM1.66236 0.281429L0.0529828 3.49393C-0.0907672 3.78143 0.0623578 4.12518 0.368608 4.21268L6.55298 5.9783C6.77486 6.0408 7.01236 5.94705 7.13111 5.75018L9.99986 1.00018L2.18111 0.00330353C1.96548 -0.0216965 1.75923 0.0876786 1.66236 0.281429Z" fill="#3F4E65"/>
</svg>
