<svg width="14" height="18" viewBox="0 0 14 18" fill="none" xmlns="http://www.w3.org/2000/svg">
<path d="M3.25 0.25C2.58696 0.25 1.95107 0.513392 1.48223 0.982233C1.01339 1.45107 0.75 2.08696 0.75 2.75V15.25C0.75 15.913 1.01339 16.5489 1.48223 17.0178C1.95107 17.4866 2.58696 17.75 3.25 17.75H10.75C11.413 17.75 12.0489 17.4866 12.5178 17.0178C12.9866 16.5489 13.25 15.913 13.25 15.25V5.7675C13.2496 5.27039 13.0517 4.79379 12.7 4.4425L9.05875 0.79875C8.88455 0.624667 8.67777 0.486604 8.45021 0.392449C8.22265 0.298293 7.97877 0.249889 7.7325 0.25H3.25ZM2 2.75C2 2.41848 2.1317 2.10054 2.36612 1.86612C2.60054 1.6317 2.91848 1.5 3.25 1.5H7V4.625C7 5.12228 7.19754 5.59919 7.54917 5.95083C7.90081 6.30246 8.37772 6.5 8.875 6.5H12V15.25C12 15.5815 11.8683 15.8995 11.6339 16.1339C11.3995 16.3683 11.0815 16.5 10.75 16.5H3.25C2.91848 16.5 2.60054 16.3683 2.36612 16.1339C2.1317 15.8995 2 15.5815 2 15.25V2.75ZM11.7413 5.25H8.875C8.70924 5.25 8.55027 5.18415 8.43306 5.06694C8.31585 4.94973 8.25 4.79076 8.25 4.625V1.75875L11.7413 5.25Z" fill="#3F4E65"/>
</svg>
