<svg width="15" height="15" viewBox="0 0 15 15" fill="none" xmlns="http://www.w3.org/2000/svg">
<g opacity="0.9">
<path d="M12.93 4.60176L10.3976 2.06944C10.3626 2.03442 10.3211 2.00664 10.2754 1.98769C10.2296 1.96874 10.1806 1.95898 10.1311 1.95898C10.0816 1.95898 10.0326 1.96874 9.98682 1.98769C9.94108 2.00664 9.89952 2.03442 9.86452 2.06944L2.93382 9L2.94908 9.01526L2.92514 9.00882L1.97706 12.5469L1.97762 12.547C1.95536 12.6132 1.95197 12.6842 1.96785 12.7522C1.98373 12.8201 2.01824 12.8823 2.0675 12.9318C2.1221 12.9862 2.19213 13.0226 2.26809 13.0359C2.34406 13.0492 2.42227 13.0388 2.49212 13.0061L2.4924 13.0074L5.99618 12.0685L5.99394 12.0603L5.99926 12.0656L12.93 5.13488C12.965 5.09988 12.9928 5.05832 13.0117 5.01258C13.0307 4.96685 13.0404 4.91782 13.0404 4.86832C13.0404 4.81881 13.0307 4.76978 13.0117 4.72405C12.9928 4.67831 12.965 4.63675 12.93 4.60176ZM3.13024 11.8608L3.69332 9.7595L5.23164 11.2978L3.13024 11.8608Z" fill="white"/>
</g>
</svg>
