<svg width="0" height="0" class="hidden">
//@collapse
    <symbol fill="none" xmlns="http://www.w3.org/2000/svg" viewBox="0 0 156 66" id="logo">
        <path d="M48.5125 24.6743C48.4882 21.1069 47.3257 17.6401 45.194 14.7779C45.1655 14.7184 45.1258 14.665 45.077 14.6205C43.6523 12.7179 41.9207 11.0654 39.9529 9.73077C39.9015 9.68971 39.8473 9.65214 39.7908 9.61832V9.61832C36.7407 7.58887 33.3039 6.21058 29.6958 5.56979H29.6508C29.6272 5.56304 29.6023 5.56304 29.5787 5.56979V5.56979C28.6782 5.39885 27.7101 5.27739 26.7555 5.19642C26.6835 3.20815 26.2738 1.98009 25.792 1.21537C25.6447 0.932775 25.4408 0.6835 25.1929 0.483059C24.945 0.282618 24.6585 0.135304 24.3511 0.050293H24.2295H24.1485C23.8407 0.135495 23.5536 0.282842 23.305 0.48323C23.0564 0.683619 22.8516 0.932792 22.7031 1.21537C22.2168 1.98009 21.8026 3.21264 21.7396 5.20092C12.3785 5.99263 4.58433 11.1073 1.47748 18.0258C1.45977 18.0621 1.44472 18.0997 1.43245 18.1382C0.513654 20.2046 0.0381763 22.4403 0.0366211 24.7013C0.0366211 30.0589 2.64367 35.0476 7.385 38.7677C7.06004 40.8612 7.26277 43.0025 7.97485 44.998V44.998C6.85818 48.5966 5.86759 53.1895 7.74971 57.094C7.75053 57.106 7.75053 57.1181 7.74971 57.13C9.92001 61.5834 14.1705 62.789 18.2815 63.9496C20.2384 64.4245 22.1433 65.092 23.9684 65.9423L24.0314 65.9693H24.072C24.1139 65.9737 24.1561 65.9737 24.198 65.9693H24.2656C24.3473 65.9702 24.428 65.9501 24.4997 65.9108C26.3252 65.051 28.2317 64.3744 30.1911 63.8911C32.5325 63.2298 34.9234 62.5416 36.9451 61.2685L37.0037 61.228C38.611 60.2207 39.9003 58.7798 40.7229 57.0716C42.6275 53.1625 41.6234 48.6281 40.5698 45.1149C40.5623 45.0903 40.55 45.0674 40.5338 45.0474C41.6054 42.4474 41.3082 39.6494 41.1686 38.7137C45.9055 35.0116 48.5125 30.0319 48.5125 24.6743ZM47.4994 24.6743C47.4984 26.1297 47.2908 27.5777 46.8826 28.9748C46.1627 27.5083 45.2363 26.1526 44.1314 24.9487C42.0827 22.6996 38.458 19.9241 32.5775 18.8355C36.4353 17.3638 40.4247 16.2627 44.4916 15.5472C46.4217 18.2021 47.4733 21.3931 47.4994 24.6743V24.6743ZM43.8207 14.643C38.5349 15.5937 33.3909 17.2094 28.5116 19.4517C28.1964 16.9012 27.0617 14.8949 25.5578 14.1617C25.6074 13.9817 25.6479 13.8108 25.6884 13.6398C30.1621 12.1384 34.7844 11.122 39.4756 10.608C41.1112 11.7366 42.5747 13.0957 43.8207 14.643V14.643ZM37.9267 47.1122L37.6565 47.3506C36.692 48.1046 35.5573 48.6111 34.3516 48.8261H34.293H34.1985H34.1715C31.6545 49.2759 28.3945 48.9385 24.4277 47.7734H24.3736H24.1755H24.135C22.3281 48.3251 20.4742 48.7091 18.5967 48.9205H18.5156C14.999 49.2624 12.3515 48.6416 10.6089 47.0492C8.58722 45.2858 8.20899 42.5194 8.20899 40.648C9.06513 42.2584 10.3428 43.6064 11.9057 44.5481C14.4947 46.0776 17.7592 46.3475 21.618 45.4073C21.8674 45.886 22.2438 46.2869 22.706 46.5661C23.1682 46.8454 23.6984 46.9923 24.2386 46.9907V46.9907C24.7781 46.9925 25.3078 46.8456 25.7693 46.5663C26.2308 46.2869 26.6063 45.8859 26.8546 45.4073C30.7134 46.3654 33.9824 46.0776 36.5669 44.5481C38.132 43.609 39.4103 42.2604 40.2636 40.648C40.2996 42.5194 39.9214 45.2858 37.9267 47.1122ZM35.6754 60.8907C33.9288 61.7531 32.0927 62.4214 30.2001 62.8834C29.3368 62.0651 28.5954 61.1274 27.9983 60.099C27.0978 58.484 27.548 56.7072 28.2189 55.0248C28.3315 54.7369 28.4666 54.4265 28.6107 54.1026C29.16 52.8566 29.8174 51.3541 29.5922 49.9641C30.3304 50.0532 31.0731 50.0997 31.8166 50.1036C32.5629 50.1061 33.3082 50.0489 34.0454 49.9327C34.3291 50.7334 33.9238 52.1099 33.5591 53.3469C33.2491 54.2008 33.0626 55.0945 33.0053 56.001C33.0041 56.9743 33.2481 57.9323 33.7147 58.7868C34.1813 59.6413 34.8555 60.3648 35.6754 60.8907ZM24.2701 64.9392C23.5406 64.3994 21.0146 62.3167 20.5283 58.9114C20.0781 55.8165 21.4064 52.4517 24.4412 48.9025C25.7812 49.2857 27.1436 49.5861 28.5206 49.8022V49.8022C28.8808 50.9448 28.2459 52.3888 27.6831 53.6708C27.5345 54.0127 27.3949 54.3366 27.2779 54.6379C26.5349 56.5498 25.9991 58.592 27.1158 60.5758C27.6617 61.5216 28.3226 62.3964 29.0834 63.1803C27.4277 63.6203 25.8151 64.209 24.2656 64.9392H24.2701ZM36.0626 43.6934C33.6401 45.1239 30.4973 45.3398 26.742 44.3412C26.6759 44.3193 26.6059 44.3114 26.5365 44.318C26.4671 44.3245 26.3998 44.3453 26.3389 44.3791C26.278 44.413 26.2247 44.459 26.1825 44.5144C26.1403 44.5698 26.11 44.6334 26.0937 44.7011C25.9607 45.0788 25.7131 45.4057 25.3855 45.6363C25.0578 45.8669 24.6664 45.9897 24.2656 45.9876C23.8615 45.9907 23.4668 45.8663 23.1377 45.632C22.8086 45.3977 22.562 45.0656 22.433 44.6831C22.4158 44.618 22.3854 44.5573 22.3435 44.5046C22.3017 44.452 22.2493 44.4086 22.1898 44.3772C22.1255 44.3427 22.0547 44.3217 21.9819 44.3155C21.9091 44.3093 21.8358 44.318 21.7666 44.3412C18.0203 45.3353 14.891 45.1194 12.464 43.6934C10.5636 42.5211 9.14298 40.7112 8.45664 38.5878C8.86638 37.7601 10.8746 33.9994 15.3863 29.627C15.8681 29.3481 21.9917 26.0014 33.1539 29.654C37.634 34.0039 39.6783 37.8051 40.079 38.5923C39.3837 40.7102 37.9589 42.513 36.0581 43.6799L36.0626 43.6934ZM20.9516 20.8957C20.9516 18.3181 21.8927 16.051 23.1714 15.2188C23.3106 15.1202 23.4619 15.04 23.6217 14.9804C23.7807 14.9205 23.9475 14.8841 24.117 14.8724H24.3061C24.4782 14.8764 24.6485 14.9083 24.8104 14.9669C24.9691 15.0194 25.1204 15.092 25.2607 15.1828C26.3998 15.889 27.2824 17.7289 27.485 19.9196C27.52 20.2438 27.5366 20.5697 27.5345 20.8957C27.5345 20.9497 27.5345 21.0082 27.5345 21.0667C27.5268 21.9026 27.4118 22.7341 27.1923 23.5408C27.0965 23.8757 26.9807 24.2047 26.8456 24.5259C26.2377 25.9699 25.2877 26.919 24.234 26.919C23.1804 26.919 22.2304 25.9744 21.6225 24.5304C21.477 24.1953 21.3581 23.8494 21.2668 23.4958C21.0454 22.6471 20.9394 21.7726 20.9516 20.8957V20.8957ZM22.0187 26.9415C20.4954 27.0102 18.9848 27.2516 17.516 27.6613V27.6613C18.4841 26.8381 19.5693 25.9879 20.767 25.1332C21.0684 25.8083 21.4928 26.4215 22.0187 26.9415V26.9415ZM26.3368 27.0855C26.9341 26.5408 27.4085 25.8753 27.7281 25.1332C29.0789 26.1093 30.3307 27.1035 31.4473 28.0796C29.7716 27.6188 28.0631 27.2865 26.3368 27.0855ZM25.918 12.4883C26.3129 10.6926 26.5748 8.87035 26.7015 7.03625C27.6021 6.86082 28.5251 6.69437 29.4752 6.54143C32.5191 7.09115 35.4406 8.17879 38.1023 9.75327C33.9641 10.2817 29.8848 11.1974 25.918 12.4883V12.4883ZM23.4821 1.80465C23.6483 1.47941 23.9067 1.21029 24.225 1.03093C24.5423 1.21175 24.8003 1.48048 24.968 1.80465C25.3012 2.36695 25.6434 3.36559 25.7154 5.08846C25.7154 5.40335 25.7154 5.74073 25.7154 6.10509V6.20855C25.7154 6.53694 25.6884 6.87881 25.6659 7.25667C25.5027 9.14738 25.2017 11.0237 24.7654 12.8706C24.6933 13.199 24.6213 13.5319 24.5402 13.8783C24.436 13.862 24.3305 13.8545 24.225 13.8558C24.1016 13.8579 23.9783 13.8669 23.8558 13.8828C23.8063 13.6713 23.7523 13.4644 23.7072 13.253C23.293 11.4973 22.9922 9.71673 22.8067 7.92243C22.7707 7.56256 22.7437 7.22069 22.7301 6.8968C22.7166 6.57292 22.7031 6.357 22.6986 6.10509C22.6986 5.74073 22.6986 5.40335 22.6986 5.09296C22.8067 3.36559 23.1534 2.36695 23.4821 1.80465V1.80465ZM21.717 6.17706C21.717 6.48745 21.7396 6.81583 21.7621 7.15321C12.5226 9.66329 6.80415 13.37 3.89542 15.7001C7.46154 10.5315 14.031 6.85182 21.717 6.17706ZM2.32398 18.5206C2.67969 18.1382 4.67888 16.069 8.62774 13.7118C12.7664 11.2886 17.213 9.43357 21.8476 8.19683C22.0538 10.0254 22.3696 11.84 22.7932 13.6309C17.795 15.5443 13.1804 18.3369 9.16806 21.8764C5.11565 25.547 3.05342 28.9658 2.22042 30.6122C1.41211 28.6967 1.00472 26.6362 1.0233 24.5575C1.04189 22.4788 1.48606 20.4259 2.32849 18.5251L2.32398 18.5206ZM2.77425 31.7997C3.40462 30.3783 7.92082 21.1431 21.7216 15.1558C20.6364 16.4243 19.943 18.4981 19.943 20.8912C19.9323 21.9782 20.0841 23.0608 20.3933 24.103C12.3785 29.744 8.7268 35.8483 7.7227 37.7421C5.67764 36.1253 3.99103 34.1018 2.76975 31.7997H2.77425ZM8.62774 46.2935C8.98647 46.8681 9.41946 47.3929 9.91551 47.8544C10.7579 48.6155 11.7546 49.1863 12.8377 49.5278V49.5278C11.7778 49.863 10.8036 50.4248 9.98305 51.1742C8.98057 52.1385 8.28382 53.3758 7.97936 54.7324C7.30846 51.9524 7.86229 48.9205 8.60523 46.2935H8.62774ZM8.7268 56.7702C9.01497 49.9686 15.3863 50.0721 15.6654 50.0811C15.713 50.0828 15.7604 50.0751 15.805 50.0586V50.0586C16.1427 50.0586 16.4894 50.0856 16.8406 50.0586C14.7514 51.705 13.4861 53.6123 13.0809 55.749C12.7522 57.6744 13.0438 59.6544 13.9139 61.4035C11.7526 60.4813 9.8975 59.1453 8.70429 56.7702H8.7268ZM15.4133 61.9928C15.0396 61.4215 13.5267 58.8844 14.094 55.947C14.5443 53.6663 16.1067 51.6555 18.7678 49.9686C20.1536 49.8197 21.5263 49.5671 22.8742 49.2129C20.2132 52.6452 19.083 55.9605 19.5332 59.0553C19.8086 60.8538 20.5787 62.5404 21.7576 63.9271C20.6994 63.5582 19.6188 63.2523 18.5562 62.9509C17.4935 62.6495 16.4084 62.3436 15.4133 61.9928ZM36.6795 60.2699C35.8828 59.866 35.2136 59.2495 34.7463 58.4888C34.279 57.7282 34.0317 56.853 34.0319 55.9605C34.097 55.1602 34.2681 54.3721 34.5407 53.6168C34.9549 52.2313 35.3737 50.8053 35.063 49.7167C35.899 49.5136 36.7002 49.1877 37.4404 48.7496V48.7496C37.4404 52.6317 39.5792 54.3006 40.4707 54.8314C40.3187 55.4659 40.0998 56.0827 39.8178 56.6712C39.1081 58.132 38.0178 59.3751 36.6615 60.2699H36.6795ZM40.6823 53.7518C39.8043 53.1085 38.2554 51.4666 38.4895 47.9804L38.6336 47.8544C39.113 47.4149 39.5323 46.9143 39.8809 46.3654C40.5022 48.6416 41.011 51.2507 40.6643 53.7518H40.6823ZM40.7949 37.7556C39.8088 35.8933 36.1707 29.8115 28.1154 24.148C28.441 23.0949 28.602 21.9979 28.5926 20.8957C28.5926 20.7878 28.5926 20.6753 28.5926 20.5718C29.2996 20.23 30.029 19.8971 30.781 19.5867C37.3414 20.3694 41.2452 23.2799 43.3659 25.5965C44.6711 26.992 45.7021 28.6202 46.4053 30.3963C45.1936 33.292 43.2551 35.8267 40.7769 37.7556H40.7949Z" fill="#3F4E65"></path>
        <path d="M17.5289 35.9868C16.0295 35.9868 14.6877 36.6436 14.1834 37.6242C14.1234 37.7437 14.1129 37.8819 14.1542 38.0091C14.1955 38.1362 14.2853 38.242 14.4041 38.3035C14.4755 38.3387 14.554 38.3572 14.6337 38.3574C14.7268 38.3577 14.8181 38.3322 14.8976 38.2837C14.9771 38.2353 15.0416 38.1658 15.084 38.083C15.4127 37.4443 16.4348 36.9944 17.5289 36.9944C18.6231 36.9944 19.6452 37.4443 19.9784 38.083C20.0084 38.1422 20.0499 38.1949 20.1003 38.238C20.1508 38.2812 20.2093 38.3139 20.2725 38.3344C20.3357 38.3549 20.4023 38.3627 20.4685 38.3574C20.5347 38.3521 20.5992 38.3338 20.6583 38.3035C20.7782 38.242 20.8689 38.1354 20.9102 38.0072C20.9516 37.879 20.9403 37.7396 20.8789 37.6197C20.3656 36.6436 19.0148 35.9868 17.5289 35.9868Z" fill="#3F4E65"></path>
        <path d="M30.9786 35.9868C29.4792 35.9868 28.1329 36.6436 27.6331 37.6242C27.6022 37.6831 27.5833 37.7476 27.5777 37.8139C27.5721 37.8802 27.5798 37.947 27.6003 38.0102C27.6209 38.0735 27.6539 38.132 27.6974 38.1824C27.7409 38.2328 27.7941 38.2739 27.8537 38.3035C27.9252 38.3387 28.0037 38.3572 28.0834 38.3574C28.1765 38.3577 28.2678 38.3322 28.3473 38.2837C28.4267 38.2353 28.4913 38.1658 28.5336 38.083C28.8623 37.4443 29.8844 36.9944 30.9786 36.9944C32.0728 36.9944 33.0949 37.4443 33.4281 38.083C33.4581 38.1422 33.4995 38.1949 33.55 38.238C33.6005 38.2812 33.659 38.3139 33.7222 38.3344C33.7853 38.3549 33.8519 38.3627 33.9181 38.3574C33.9844 38.3521 34.0489 38.3338 34.108 38.3035C34.227 38.2411 34.3169 38.1345 34.3582 38.0066C34.3994 37.8788 34.3888 37.7398 34.3286 37.6197C33.8198 36.6436 32.4735 35.9868 30.9786 35.9868Z" fill="#3F4E65"></path>
        <path d="M63.8707 29.0774C67.1621 29.0774 70.7282 30.8767 71.3406 35.1097H67.3467C66.7794 33.4993 65.5727 32.7705 63.8707 32.7705C61.4887 32.7705 59.9218 34.5699 59.9218 37.1924C59.9218 39.5316 61.4662 41.5693 63.8707 41.5963C65.5997 41.5963 66.982 40.7327 67.4143 39.0323H71.4081C70.8183 43.5306 67.2567 45.2895 63.8707 45.2895C59.8182 45.312 55.7433 42.5905 55.7208 37.1924C55.6983 31.7944 59.8317 29.0774 63.8707 29.0774Z" fill="#3F4E65"></path>
        <path d="M77.7657 44.6959L80.2512 39.5767L74.9065 29.8513V29.2395H79.4452L82.444 35.0874H82.5566L85.2807 29.2395H89.7068V29.8513L82.1468 45.1457H77.7657V44.6959Z" fill="#3F4E65"></path>
        <path d="M94.7049 45.1455H90.729V44.5562L97.8793 29.0684H99.6128L106.817 44.5427V45.1455H102.841L98.7573 35.8474L94.7049 45.1455Z" fill="#3F4E65"></path>
        <path d="M108.668 32.8875V29.2573H120.469V32.8875H116.588V45.1456H112.572V32.8875H108.668Z" fill="#3F4E65"></path>
        <path d="M133.5 43.1347H127.237L126.305 45.1455H122.333V44.5562L129.484 29.0684H131.231L138.404 44.5562V45.1455H134.432L133.5 43.1347ZM130.348 35.4875L128.547 39.662H132.181L130.348 35.4875Z" fill="#3F4E65"></path>
        <path d="M156 45.1456H151.844V38.7579H146.941V45.1456H142.789V29.2573H146.941V35.0152H151.844V29.2573H156V45.1456Z" fill="#3F4E65"></path>
    </symbol>
    <symbol fill="none" xmlns="http://www.w3.org/2000/svg" viewBox="0 0 156 66" id="logo_white">
        <path d="M48.5125 24.6743C48.4882 21.1069 47.3257 17.6401 45.194 14.7779C45.1655 14.7184 45.1258 14.665 45.077 14.6205C43.6523 12.7179 41.9207 11.0654 39.9529 9.73077C39.9015 9.68971 39.8473 9.65214 39.7908 9.61832C36.7407 7.58887 33.3039 6.21058 29.6958 5.56979H29.6508C29.6272 5.56304 29.6023 5.56304 29.5787 5.56979C28.6782 5.39885 27.7101 5.27739 26.7555 5.19642C26.6835 3.20815 26.2738 1.98009 25.792 1.21537C25.6447 0.932775 25.4408 0.6835 25.1929 0.483059C24.945 0.282618 24.6585 0.135304 24.3511 0.050293H24.2295H24.1485C23.8407 0.135495 23.5536 0.282842 23.305 0.48323C23.0564 0.683619 22.8516 0.932792 22.7031 1.21537C22.2168 1.98009 21.8026 3.21264 21.7396 5.20092C12.3785 5.99263 4.58433 11.1073 1.47748 18.0258C1.45977 18.0621 1.44472 18.0997 1.43245 18.1382C0.513654 20.2046 0.0381763 22.4403 0.0366211 24.7013C0.0366211 30.0589 2.64367 35.0476 7.385 38.7677C7.06004 40.8612 7.26277 43.0025 7.97485 44.998C6.85818 48.5966 5.86759 53.1895 7.74971 57.0941C7.75053 57.106 7.75053 57.1181 7.74971 57.13C9.92001 61.5834 14.1705 62.789 18.2815 63.9496C20.2384 64.4245 22.1433 65.092 23.9684 65.9423L24.0314 65.9693H24.072C24.1139 65.9737 24.1561 65.9737 24.198 65.9693H24.2656C24.3473 65.9702 24.428 65.9501 24.4997 65.9109C26.3252 65.051 28.2317 64.3744 30.1911 63.8911C32.5325 63.2298 34.9234 62.5416 36.9451 61.2685L37.0037 61.228C38.611 60.2207 39.9003 58.7798 40.7229 57.0716C42.6275 53.1625 41.6234 48.6281 40.5698 45.1149C40.5623 45.0903 40.55 45.0674 40.5338 45.0474C41.6054 42.4474 41.3082 39.6494 41.1686 38.7137C45.9055 35.0116 48.5125 30.0319 48.5125 24.6743ZM47.4994 24.6743C47.4984 26.1297 47.2908 27.5777 46.8826 28.9748C46.1627 27.5083 45.2363 26.1526 44.1314 24.9487C42.0827 22.6996 38.458 19.9241 32.5775 18.8355C36.4353 17.3638 40.4247 16.2627 44.4916 15.5472C46.4217 18.2021 47.4733 21.3931 47.4994 24.6743ZM43.8207 14.643C38.5349 15.5937 33.3909 17.2094 28.5116 19.4517C28.1964 16.9012 27.0617 14.8949 25.5578 14.1617C25.6074 13.9817 25.6479 13.8108 25.6884 13.6398C30.1621 12.1384 34.7844 11.122 39.4756 10.608C41.1112 11.7366 42.5747 13.0957 43.8207 14.643ZM37.9267 47.1122L37.6565 47.3506C36.692 48.1046 35.5573 48.6111 34.3516 48.8261H34.293H34.1985H34.1715C31.6545 49.2759 28.3945 48.9385 24.4277 47.7734H24.3736H24.1755H24.135C22.3281 48.3251 20.4742 48.7091 18.5967 48.9205H18.5156C14.999 49.2624 12.3515 48.6416 10.6089 47.0492C8.58722 45.2859 8.20899 42.5194 8.20899 40.648C9.06513 42.2584 10.3428 43.6064 11.9057 44.5481C14.4947 46.0776 17.7592 46.3475 21.618 45.4073C21.8674 45.886 22.2438 46.2869 22.706 46.5661C23.1682 46.8454 23.6984 46.9923 24.2386 46.9907C24.7781 46.9925 25.3078 46.8456 25.7693 46.5663C26.2308 46.2869 26.6063 45.8859 26.8546 45.4073C30.7134 46.3654 33.9824 46.0776 36.5669 44.5481C38.132 43.609 39.4103 42.2604 40.2636 40.648C40.2996 42.5194 39.9214 45.2858 37.9267 47.1122ZM35.6754 60.8907C33.9288 61.7531 32.0927 62.4214 30.2001 62.8834C29.3368 62.0651 28.5954 61.1274 27.9983 60.099C27.0978 58.484 27.548 56.7072 28.2189 55.0248C28.3315 54.7369 28.4666 54.4265 28.6107 54.1026C29.16 52.8566 29.8174 51.3541 29.5922 49.9641C30.3304 50.0532 31.0731 50.0997 31.8166 50.1036C32.5629 50.1061 33.3082 50.0489 34.0454 49.9327C34.3291 50.7334 33.9238 52.1099 33.5591 53.3469C33.2491 54.2008 33.0626 55.0945 33.0053 56.0009C33.0041 56.9743 33.2481 57.9323 33.7147 58.7868C34.1813 59.6413 34.8555 60.3648 35.6754 60.8907ZM24.2701 64.9392C23.5406 64.3994 21.0146 62.3167 20.5283 58.9114C20.0781 55.8165 21.4064 52.4517 24.4412 48.9025C25.7812 49.2857 27.1436 49.5861 28.5206 49.8022C28.8808 50.9448 28.2459 52.3888 27.6831 53.6708C27.5345 54.0127 27.3949 54.3366 27.2779 54.6379C26.5349 56.5498 25.9991 58.592 27.1158 60.5758C27.6617 61.5216 28.3226 62.3965 29.0834 63.1803C27.4277 63.6203 25.8151 64.209 24.2656 64.9392H24.2701ZM36.0626 43.6934C33.6401 45.1239 30.4973 45.3398 26.742 44.3412C26.6759 44.3193 26.6059 44.3114 26.5365 44.318C26.4671 44.3245 26.3998 44.3453 26.3389 44.3791C26.278 44.413 26.2247 44.459 26.1825 44.5144C26.1403 44.5698 26.11 44.6334 26.0937 44.7011C25.9607 45.0788 25.7131 45.4057 25.3855 45.6363C25.0578 45.8669 24.6664 45.9897 24.2656 45.9876C23.8615 45.9907 23.4668 45.8663 23.1377 45.632C22.8086 45.3977 22.562 45.0656 22.433 44.6831C22.4158 44.618 22.3854 44.5573 22.3435 44.5046C22.3017 44.452 22.2493 44.4086 22.1898 44.3772C22.1255 44.3427 22.0547 44.3217 21.9819 44.3155C21.9091 44.3093 21.8358 44.318 21.7666 44.3412C18.0203 45.3353 14.891 45.1194 12.464 43.6934C10.5636 42.5211 9.14298 40.7112 8.45664 38.5878C8.86638 37.7601 10.8746 33.9994 15.3863 29.627C15.8681 29.3481 21.9917 26.0014 33.1539 29.654C37.634 34.0039 39.6783 37.8051 40.079 38.5923C39.3837 40.7102 37.9589 42.513 36.0581 43.6799L36.0626 43.6934ZM20.9516 20.8957C20.9516 18.3181 21.8927 16.051 23.1714 15.2188C23.3106 15.1202 23.4619 15.04 23.6217 14.9804C23.7807 14.9205 23.9475 14.8841 24.117 14.8724H24.3061C24.4782 14.8764 24.6485 14.9083 24.8104 14.9669C24.9691 15.0194 25.1204 15.092 25.2607 15.1828C26.3998 15.889 27.2824 17.7289 27.485 19.9196C27.52 20.2438 27.5366 20.5697 27.5345 20.8957C27.5345 20.9497 27.5345 21.0082 27.5345 21.0667C27.5268 21.9026 27.4118 22.7341 27.1923 23.5408C27.0965 23.8757 26.9807 24.2047 26.8456 24.5259C26.2377 25.9699 25.2877 26.919 24.234 26.919C23.1804 26.919 22.2304 25.9744 21.6225 24.5304C21.477 24.1953 21.3581 23.8494 21.2668 23.4958C21.0454 22.6471 20.9394 21.7726 20.9516 20.8957ZM22.0187 26.9415C20.4954 27.0102 18.9848 27.2516 17.516 27.6613C18.4841 26.8381 19.5693 25.9879 20.767 25.1332C21.0684 25.8083 21.4928 26.4215 22.0187 26.9415ZM26.3368 27.0855C26.9341 26.5408 27.4085 25.8753 27.7281 25.1332C29.0789 26.1093 30.3307 27.1035 31.4473 28.0796C29.7716 27.6188 28.0631 27.2865 26.3368 27.0855ZM25.918 12.4883C26.3129 10.6926 26.5748 8.87035 26.7015 7.03625C27.6021 6.86082 28.5251 6.69437 29.4752 6.54143C32.5191 7.09115 35.4406 8.17879 38.1023 9.75327C33.9641 10.2817 29.8848 11.1974 25.918 12.4883ZM23.4821 1.80465C23.6483 1.47941 23.9067 1.21029 24.225 1.03093C24.5423 1.21175 24.8003 1.48048 24.968 1.80465C25.3012 2.36695 25.6434 3.36559 25.7154 5.08846C25.7154 5.40335 25.7154 5.74073 25.7154 6.10509V6.20855C25.7154 6.53694 25.6884 6.87881 25.6659 7.25667C25.5027 9.14738 25.2017 11.0237 24.7654 12.8706C24.6933 13.199 24.6213 13.5319 24.5402 13.8783C24.436 13.862 24.3305 13.8545 24.225 13.8558C24.1016 13.8579 23.9783 13.8669 23.8558 13.8828C23.8063 13.6713 23.7523 13.4644 23.7072 13.253C23.293 11.4973 22.9922 9.71673 22.8067 7.92243C22.7707 7.56256 22.7437 7.22069 22.7301 6.8968C22.7166 6.57292 22.7031 6.357 22.6986 6.10509C22.6986 5.74073 22.6986 5.40335 22.6986 5.09296C22.8067 3.36559 23.1534 2.36695 23.4821 1.80465ZM21.717 6.17706C21.717 6.48745 21.7396 6.81583 21.7621 7.15321C12.5226 9.66329 6.80415 13.37 3.89542 15.7001C7.46154 10.5315 14.031 6.85182 21.717 6.17706ZM2.32398 18.5206C2.67969 18.1382 4.67888 16.069 8.62774 13.7118C12.7664 11.2886 17.213 9.43357 21.8476 8.19683C22.0538 10.0254 22.3696 11.84 22.7932 13.6309C17.795 15.5443 13.1804 18.3369 9.16807 21.8764C5.11565 25.547 3.05342 28.9658 2.22042 30.6122C1.41211 28.6967 1.00472 26.6362 1.0233 24.5575C1.04189 22.4788 1.48606 20.4259 2.32849 18.5251L2.32398 18.5206ZM2.77425 31.7997C3.40462 30.3783 7.92082 21.1431 21.7216 15.1558C20.6364 16.4243 19.943 18.4981 19.943 20.8912C19.9323 21.9782 20.0841 23.0608 20.3933 24.103C12.3785 29.744 8.7268 35.8483 7.7227 37.7421C5.67764 36.1253 3.99103 34.1018 2.76975 31.7997H2.77425ZM8.62774 46.2935C8.98647 46.8681 9.41946 47.3929 9.91551 47.8544C10.7579 48.6155 11.7546 49.1863 12.8377 49.5278C11.7778 49.863 10.8036 50.4248 9.98305 51.1742C8.98057 52.1385 8.28382 53.3758 7.97936 54.7324C7.30846 51.9524 7.86229 48.9205 8.60523 46.2935H8.62774ZM8.7268 56.7702C9.01497 49.9686 15.3863 50.0721 15.6654 50.0811C15.713 50.0828 15.7604 50.0751 15.805 50.0586C16.1427 50.0586 16.4894 50.0856 16.8406 50.0586C14.7514 51.705 13.4861 53.6123 13.0809 55.749C12.7522 57.6744 13.0438 59.6544 13.9139 61.4035C11.7526 60.4813 9.8975 59.1453 8.70429 56.7702H8.7268ZM15.4133 61.9928C15.0396 61.4215 13.5267 58.8844 14.094 55.947C14.5443 53.6663 16.1067 51.6555 18.7678 49.9686C20.1536 49.8197 21.5263 49.5671 22.8742 49.2129C20.2132 52.6452 19.083 55.9605 19.5332 59.0553C19.8086 60.8538 20.5787 62.5404 21.7576 63.9271C20.6994 63.5582 19.6188 63.2523 18.5562 62.9509C17.4935 62.6495 16.4084 62.3436 15.4133 61.9928ZM36.6795 60.2699C35.8828 59.866 35.2136 59.2495 34.7463 58.4888C34.279 57.7282 34.0317 56.853 34.0319 55.9605C34.097 55.1602 34.2681 54.3721 34.5407 53.6168C34.9549 52.2313 35.3737 50.8053 35.063 49.7167C35.899 49.5136 36.7002 49.1877 37.4404 48.7496C37.4404 52.6317 39.5792 54.3006 40.4707 54.8314C40.3187 55.4659 40.0998 56.0827 39.8178 56.6712C39.1081 58.132 38.0178 59.3751 36.6615 60.2699H36.6795ZM40.6824 53.7518C39.8043 53.1085 38.2554 51.4666 38.4895 47.9804L38.6336 47.8544C39.113 47.4149 39.5323 46.9143 39.8809 46.3654C40.5022 48.6416 41.011 51.2507 40.6643 53.7518H40.6824ZM40.7949 37.7556C39.8088 35.8933 36.1707 29.8115 28.1154 24.148C28.441 23.0949 28.602 21.9979 28.5926 20.8957C28.5926 20.7878 28.5926 20.6753 28.5926 20.5718C29.2996 20.23 30.029 19.8971 30.781 19.5867C37.3414 20.3694 41.2452 23.2799 43.3659 25.5965C44.6711 26.992 45.7021 28.6202 46.4053 30.3963C45.1936 33.292 43.2551 35.8267 40.7769 37.7556H40.7949Z" fill="white"></path>
        <path d="M17.5289 35.9868C16.0295 35.9868 14.6877 36.6436 14.1834 37.6242C14.1234 37.7437 14.1129 37.8819 14.1542 38.0091C14.1955 38.1362 14.2853 38.242 14.4041 38.3035C14.4755 38.3387 14.554 38.3572 14.6337 38.3574C14.7268 38.3577 14.8181 38.3322 14.8976 38.2837C14.9771 38.2353 15.0416 38.1658 15.084 38.083C15.4127 37.4443 16.4348 36.9944 17.5289 36.9944C18.6231 36.9944 19.6452 37.4443 19.9784 38.083C20.0084 38.1422 20.0499 38.1949 20.1003 38.238C20.1508 38.2812 20.2093 38.3139 20.2725 38.3344C20.3357 38.3549 20.4023 38.3627 20.4685 38.3574C20.5347 38.3521 20.5992 38.3338 20.6583 38.3035C20.7782 38.242 20.8689 38.1354 20.9102 38.0072C20.9516 37.879 20.9403 37.7396 20.8789 37.6197C20.3656 36.6436 19.0148 35.9868 17.5289 35.9868Z" fill="white"></path>
        <path d="M30.9786 35.9868C29.4792 35.9868 28.1329 36.6436 27.6331 37.6242C27.6022 37.6831 27.5833 37.7476 27.5777 37.8139C27.5721 37.8802 27.5798 37.947 27.6003 38.0102C27.6209 38.0735 27.6539 38.132 27.6974 38.1824C27.7409 38.2328 27.7941 38.2739 27.8537 38.3035C27.9252 38.3387 28.0037 38.3572 28.0834 38.3574C28.1765 38.3577 28.2678 38.3322 28.3473 38.2837C28.4267 38.2353 28.4913 38.1658 28.5336 38.083C28.8623 37.4443 29.8844 36.9944 30.9786 36.9944C32.0728 36.9944 33.0949 37.4443 33.4281 38.083C33.4581 38.1422 33.4995 38.1949 33.55 38.238C33.6005 38.2812 33.659 38.3139 33.7222 38.3344C33.7853 38.3549 33.8519 38.3627 33.9181 38.3574C33.9844 38.3521 34.0489 38.3338 34.108 38.3035C34.227 38.2411 34.3169 38.1345 34.3582 38.0066C34.3994 37.8788 34.3888 37.7398 34.3286 37.6197C33.8198 36.6436 32.4735 35.9868 30.9786 35.9868Z" fill="white"></path>
        <path d="M63.8707 29.0776C67.1621 29.0776 70.7282 30.877 71.3406 35.1099H67.3467C66.7794 33.4995 65.5727 32.7708 63.8707 32.7708C61.4887 32.7708 59.9218 34.5701 59.9218 37.1927C59.9218 39.5318 61.4662 41.5696 63.8707 41.5966C65.5997 41.5966 66.982 40.7329 67.4143 39.0325H71.4081C70.8183 43.5309 67.2567 45.2897 63.8707 45.2897C59.8182 45.3122 55.7433 42.5907 55.7208 37.1927C55.6983 31.7947 59.8317 29.0776 63.8707 29.0776Z" fill="white"></path>
        <path d="M77.7657 44.6956L80.2512 39.5765L74.9065 29.851V29.2393H79.4452L82.444 35.0871H82.5566L85.2807 29.2393H89.7068V29.851L82.1468 45.1455H77.7657V44.6956Z" fill="white"></path>
        <path d="M94.7049 45.1455H90.729V44.5562L97.8793 29.0684H99.6128L106.817 44.5427V45.1455H102.841L98.7573 35.8474L94.7049 45.1455Z" fill="white"></path>
        <path d="M108.668 32.8875V29.2573H120.469V32.8875H116.588V45.1456H112.572V32.8875H108.668Z" fill="white"></path>
        <path d="M133.5 43.1347H127.237L126.305 45.1455H122.333V44.5562L129.484 29.0684H131.231L138.404 44.5562V45.1455H134.432L133.5 43.1347ZM130.348 35.4875L128.547 39.662H132.181L130.348 35.4875Z" fill="white"></path>
        <path d="M156 45.1456H151.844V38.7579H146.941V45.1456H142.789V29.2573H146.941V35.0152H151.844V29.2573H156V45.1456Z" fill="white"></path>
    </symbol>
    <symbol fill="none" xmlns="http://www.w3.org/2000/svg" viewBox="0 0 12 12" id="burger_to_close">
        <path d="M2.76746 8.42432L3.57558 9.23244L9.23243 3.57558L8.42431 2.76746L2.76746 8.42432Z" fill="white"></path>
        <path d="M8.42432 9.23242L9.23244 8.4243L3.57558 2.76745L2.76746 3.57557L8.42432 9.23242Z" fill="white"></path>
    </symbol>
    <symbol fill="none" xmlns="http://www.w3.org/2000/svg" viewBox="0 0 10 8" id="burger_to_open">
        <path d="M0.799927 4.5999H9.19993V3.3999H0.799927V4.5999ZM0.799927 7.5999H9.19993V6.3999H0.799927V7.5999ZM0.799927 0.399902V1.5999H9.19993V0.399902H0.799927Z" fill="white"></path>
    </symbol>
    <symbol fill="none" xmlns="http://www.w3.org/2000/svg" viewBox="0 0 14 13" id="burger_to_open_grey">
        <path d="M0 7.5H14V5.5H0V7.5ZM0 12.5H14V10.5H0V12.5ZM0 0.5V2.5H14V0.5H0Z" fill="#3F4E65"></path>
    </symbol>
    <symbol fill="none" xmlns="http://www.w3.org/2000/svg" viewBox="0 0 41 29" id="cart">
        <path d="M40.6514 5.78617C40.3916 5.42327 40.043 5.24182 39.6055 5.24182H11.7559L11 3.27403C10.8086 2.62887 10.5488 2.07779 10.2207 1.6208C9.89258 1.16381 9.54395 0.841232 9.1748 0.65306C8.80566 0.464888 8.48438 0.3372 8.21094 0.269996C7.9375 0.202792 7.66406 0.169189 7.39062 0.169189H1.77148C1.41602 0.169189 1.11523 0.290157 0.869141 0.532093C0.623047 0.774028 0.5 1.08317 0.5 1.45951C0.5 1.67457 0.554688 1.8829 0.664062 2.08451C0.773438 2.28612 0.930664 2.44069 1.13574 2.54822C1.34082 2.65575 1.55273 2.70951 1.77148 2.70951H7.39062C7.5 2.70951 7.60254 2.72295 7.69824 2.74983C7.79395 2.77672 7.92383 2.89096 8.08789 3.09258C8.25195 3.29419 8.38867 3.59661 8.49805 3.99983L14.3809 20.1531C14.4355 20.3144 14.5244 20.4689 14.6475 20.6168C14.7705 20.7646 14.9141 20.8789 15.0781 20.9595C15.2422 21.0402 15.4199 21.0805 15.6113 21.0805H33.3301C33.6035 21.0805 33.8564 20.9998 34.0889 20.8385C34.3213 20.6773 34.4785 20.4756 34.5605 20.2337L40.8359 6.97569C40.9727 6.54558 40.9111 6.14908 40.6514 5.78617ZM32.4277 18.4998H16.6367L12.4531 7.82246H37.7188L32.4277 18.4998ZM30.0625 22.4798C29.1602 22.4798 28.3877 22.7957 27.7451 23.4274C27.1025 24.0591 26.7812 24.8186 26.7812 25.7057C26.7812 26.5928 27.1025 27.3522 27.7451 27.9839C28.3877 28.6156 29.1602 28.9315 30.0625 28.9315C30.9648 28.9315 31.7373 28.6156 32.3799 27.9839C33.0225 27.3522 33.3438 26.5928 33.3438 25.7057C33.3438 24.8186 33.0225 24.0591 32.3799 23.4274C31.7373 22.7957 30.9648 22.4798 30.0625 22.4798ZM18.25 22.4798C17.6484 22.4798 17.0947 22.6277 16.5889 22.9234C16.083 23.2191 15.6865 23.6089 15.3994 24.0927C15.1123 24.5766 14.9688 25.1143 14.9688 25.7057C14.9688 26.5928 15.29 27.3522 15.9326 27.9839C16.5752 28.6156 17.3477 28.9315 18.25 28.9315C19.1523 28.9315 19.9248 28.6156 20.5674 27.9839C21.21 27.3522 21.5312 26.5928 21.5312 25.7057C21.5312 25.4906 21.5107 25.2755 21.4697 25.0605C21.4287 24.8454 21.3672 24.6438 21.2852 24.4557C21.2031 24.2675 21.1006 24.086 20.9775 23.9113C20.8545 23.7366 20.7178 23.5753 20.5674 23.4274C20.417 23.2796 20.2529 23.1452 20.0752 23.0242C19.8975 22.9032 19.7129 22.8024 19.5215 22.7218C19.3301 22.6411 19.125 22.5806 18.9062 22.5403C18.6875 22.5 18.4688 22.4798 18.25 22.4798Z" fill="#3F4E65"></path>
    </symbol>
    <symbol fill="none" xmlns="http://www.w3.org/2000/svg" viewBox="0 0 25 18" id="cart_white">
        <path d="M24.4475 4.09234C24.295 3.87933 24.0904 3.77282 23.8336 3.77282H7.48707L7.04341 2.61782C6.93107 2.23913 6.7786 1.91568 6.586 1.64744C6.39341 1.37921 6.18877 1.18987 5.9721 1.07942C5.75543 0.968973 5.56685 0.894025 5.40636 0.854579C5.24586 0.815133 5.08536 0.79541 4.92487 0.79541H1.62668C1.41803 0.79541 1.24149 0.866413 1.09704 1.00842C0.952594 1.15042 0.880371 1.33188 0.880371 1.55277C0.880371 1.679 0.91247 1.80128 0.976669 1.91962C1.04087 2.03796 1.13315 2.12869 1.25352 2.1918C1.3739 2.25491 1.49828 2.28647 1.62668 2.28647H4.92487C4.98907 2.28647 5.04925 2.29436 5.10543 2.31014C5.1616 2.32592 5.23784 2.39297 5.33413 2.51131C5.43043 2.62965 5.51068 2.80716 5.57488 3.04383L9.02783 12.5251C9.05993 12.6197 9.11209 12.7105 9.18432 12.7973C9.25654 12.884 9.3408 12.9511 9.4371 12.9984C9.53339 13.0458 9.63772 13.0694 9.75006 13.0694H20.1502C20.3107 13.0694 20.4592 13.0221 20.5956 12.9274C20.732 12.8328 20.8243 12.7144 20.8724 12.5724L24.5558 4.79053C24.6361 4.53808 24.5999 4.30534 24.4475 4.09234ZM19.6206 11.5547H10.3519L7.89634 5.28755H22.7262L19.6206 11.5547ZM18.2323 13.8908C17.7026 13.8908 17.2492 14.0762 16.8721 14.447C16.4949 14.8178 16.3063 15.2635 16.3063 15.7842C16.3063 16.3049 16.4949 16.7506 16.8721 17.1214C17.2492 17.4922 17.7026 17.6776 18.2323 17.6776C18.7619 17.6776 19.2153 17.4922 19.5925 17.1214C19.9696 16.7506 20.1582 16.3049 20.1582 15.7842C20.1582 15.2635 19.9696 14.8178 19.5925 14.447C19.2153 14.0762 18.7619 13.8908 18.2323 13.8908ZM11.2988 13.8908C10.9458 13.8908 10.6208 13.9776 10.3238 14.1511C10.0269 14.3247 9.7942 14.5535 9.62568 14.8375C9.45716 15.1215 9.3729 15.4371 9.3729 15.7842C9.3729 16.3049 9.56148 16.7506 9.93865 17.1214C10.3158 17.4922 10.7692 17.6776 11.2988 17.6776C11.8285 17.6776 12.2819 17.4922 12.6591 17.1214C13.0362 16.7506 13.2248 16.3049 13.2248 15.7842C13.2248 15.658 13.2128 15.5318 13.1887 15.4055C13.1646 15.2793 13.1285 15.161 13.0804 15.0505C13.0322 14.9401 12.972 14.8336 12.8998 14.731C12.8276 14.6284 12.7473 14.5338 12.6591 14.447C12.5708 14.3602 12.4745 14.2813 12.3702 14.2103C12.2658 14.1393 12.1575 14.0801 12.0452 14.0328C11.9328 13.9855 11.8124 13.95 11.684 13.9263C11.5556 13.9026 11.4272 13.8908 11.2988 13.8908Z" fill="white"></path>
    </symbol>
    <symbol fill="none" xmlns="http://www.w3.org/2000/svg" viewBox="0 0 15 15" id="catalogue_grey_to_close">
        <rect x="14.0624" y="0.000244141" width="1.3258" height="19.8871" transform="rotate(45 14.0624 0.000244141)" fill="#3F4E65"></rect>
        <rect x="0.00012207" y="0.9375" width="1.3258" height="19.8871" transform="rotate(-45 0.00012207 0.9375)" fill="#3F4E65"></rect>
    </symbol>
    <symbol fill="none" xmlns="http://www.w3.org/2000/svg" viewBox="0 0 15 15" id="catalogue_grey_to_open">
        <path d="M0.5 2C0.5 1.17157 1.17157 0.5 2 0.5H6C6.27614 0.5 6.5 0.723858 6.5 1V6C6.5 6.27614 6.27614 6.5 6 6.5H1C0.723858 6.5 0.5 6.27614 0.5 6V2Z" stroke="#3F4E65"></path>
        <path d="M8.5 1C8.5 0.723858 8.72386 0.5 9 0.5H13C13.8284 0.5 14.5 1.17157 14.5 2V6C14.5 6.27614 14.2761 6.5 14 6.5H9C8.72386 6.5 8.5 6.27614 8.5 6V1Z" stroke="#3F4E65"></path>
        <path d="M8.5 9C8.5 8.72386 8.72386 8.5 9 8.5H14C14.2761 8.5 14.5 8.72386 14.5 9V13C14.5 13.8284 13.8284 14.5 13 14.5H9C8.72386 14.5 8.5 14.2761 8.5 14V9Z" stroke="#3F4E65"></path>
        <path d="M0.5 9C0.5 8.72386 0.723858 8.5 1 8.5H6C6.27614 8.5 6.5 8.72386 6.5 9V14C6.5 14.2761 6.27614 14.5 6 14.5H2C1.17157 14.5 0.5 13.8284 0.5 13V9Z" stroke="#3F4E65"></path>
    </symbol>
    <symbol fill="none" xmlns="http://www.w3.org/2000/svg" viewBox="0 0 15 15" id="catalogue_white">
        <path d="M0.5 2C0.5 1.17157 1.17157 0.5 2 0.5H6C6.27614 0.5 6.5 0.723858 6.5 1V6C6.5 6.27614 6.27614 6.5 6 6.5H1C0.723858 6.5 0.5 6.27614 0.5 6V2Z" stroke="white"></path>
        <path d="M8.5 1C8.5 0.723858 8.72386 0.5 9 0.5H13C13.8284 0.5 14.5 1.17157 14.5 2V6C14.5 6.27614 14.2761 6.5 14 6.5H9C8.72386 6.5 8.5 6.27614 8.5 6V1Z" stroke="white"></path>
        <path d="M8.5 9C8.5 8.72386 8.72386 8.5 9 8.5H14C14.2761 8.5 14.5 8.72386 14.5 9V13C14.5 13.8284 13.8284 14.5 13 14.5H9C8.72386 14.5 8.5 14.2761 8.5 14V9Z" stroke="white"></path>
        <path d="M0.5 9C0.5 8.72386 0.723858 8.5 1 8.5H6C6.27614 8.5 6.5 8.72386 6.5 9V14C6.5 14.2761 6.27614 14.5 6 14.5H2C1.17157 14.5 0.5 13.8284 0.5 13V9Z" stroke="white"></path>
    </symbol>
    <symbol xmlns="http://www.w3.org/2000/svg" viewBox="0 0 448 512" id="check">
        <path d="M438.6 105.4C451.1 117.9 451.1 138.1 438.6 150.6L182.6 406.6C170.1 419.1 149.9 419.1 137.4 406.6L9.372 278.6C-3.124 266.1-3.124 245.9 9.372 233.4C21.87 220.9 42.13 220.9 54.63 233.4L159.1 338.7L393.4 105.4C405.9 92.88 426.1 92.88 438.6 105.4H438.6z"></path>
    </symbol>
    <symbol fill="none" xmlns="http://www.w3.org/2000/svg" viewBox="0 0 12 13" id="download">
        <path d="M10.9583 4.375H8.12492V0.125H3.87492V4.375H1.04159L5.99992 10.0417L10.9583 4.375ZM0.333252 11.4583H11.6666V12.875H0.333252V11.4583Z" fill="white"></path>
    </symbol>
    <symbol fill="none" xmlns="http://www.w3.org/2000/svg" viewBox="0 0 12 13" id="download_grey">
        <path d="M10.9585 4.375H8.12516V0.125H3.87516V4.375H1.04183L6.00016 10.0417L10.9585 4.375ZM0.333496 11.4583H11.6668V12.875H0.333496V11.4583Z" fill="#3F4E65"></path>
    </symbol>
    <symbol fill="none" xmlns="http://www.w3.org/2000/svg" viewBox="0 0 17 17" id="delivery">
        <path fill-rule="evenodd" clip-rule="evenodd" d="M12.1191 3.55325C13.593 3.89527 14.1569 4.75713 14.8637 5.94336H12.1191V3.55325ZM3.50552 6.04297C3.79411 6.04297 4.00357 6.18227 4.00357 6.50781C4.00357 6.78239 3.78139 7.00508 3.50695 7.00586H0.498047C0.222954 7.00586 0 7.22894 0 7.50391C0 7.779 0.222954 8.00195 0.498047 8.00195H4.98047C5.25816 8.00195 5.48046 8.22478 5.48046 8.5C5.48046 8.77509 5.25751 8.99805 4.98241 8.99805H0.498047C0.222954 8.99805 0 9.221 0 9.49609C0 9.77119 0.222954 9.99414 0.498047 9.99414H1.59375V11.4883C1.59375 11.7634 1.8167 11.9863 2.0918 11.9863H3.09295C3.27142 12.8654 4.04819 13.5137 4.96387 13.5137C5.87955 13.5137 6.65632 12.8654 6.83479 11.9863H11.8918C12.0702 12.8654 12.847 13.5137 13.7627 13.5137C14.6784 13.5137 15.4551 12.8654 15.6336 11.9863H16.502C16.777 11.9863 17 11.7634 17 11.4883V8.5C17 7.03867 15.4586 6.94166 15.4572 6.93945H11.6211C11.346 6.93945 11.123 6.7165 11.123 6.44141V3.45312H2.0918C1.8167 3.45312 1.59375 3.67608 1.59375 3.95117V5.04688H0.996094C0.721001 5.04688 0.498047 5.26983 0.498047 5.54492C0.498047 5.82001 0.721001 6.04297 0.996094 6.04297H3.50552ZM14.4083 10.9588C14.7649 11.3154 14.7649 11.8937 14.4083 12.2503C13.8348 12.8238 12.8496 12.4158 12.8496 11.6045C12.8496 10.7934 13.8348 10.3853 14.4083 10.9588ZM5.60951 10.9588C5.96606 11.3154 5.96606 11.8937 5.60951 12.2503C5.03598 12.8238 4.05078 12.4158 4.05078 11.6045C4.05078 10.7934 5.03598 10.3853 5.60951 10.9588Z" fill="#3F4E65"></path>
    </symbol>
    <symbol fill="none" xmlns="http://www.w3.org/2000/svg" viewBox="0 0 25 25" id="double-check">
        <path d="M2.5 12.5L7.75 17.5L10.375 14.5" stroke="white" stroke-width="2" stroke-linecap="round" stroke-linejoin="round"></path>
        <path d="M8.5 12.5L13.75 17.5L22.5 7.5" stroke="white" stroke-width="2" stroke-linecap="round" stroke-linejoin="round"></path>
        <path d="M16.5 7.5L13 11.5" stroke="white" stroke-width="2" stroke-linecap="round" stroke-linejoin="round"></path>
    </symbol>
    <symbol fill="none" xmlns="http://www.w3.org/2000/svg" viewBox="0 0 18 14" id="envelope">
        <path d="M3.37508 0.333252H14.6251C15.3169 0.333207 15.9824 0.59788 16.4853 1.07298C16.9881 1.54808 17.2901 2.19758 17.3293 2.88825L17.3334 3.04158V10.9583C17.3335 11.65 17.0688 12.3156 16.5937 12.8184C16.1186 13.3213 15.4691 13.6233 14.7784 13.6624L14.6251 13.6666H3.37508C2.6833 13.6666 2.01772 13.402 1.51489 12.9269C1.01205 12.4518 0.71008 11.8023 0.670915 11.1116L0.666748 10.9583V3.04158C0.666703 2.3498 0.931376 1.68423 1.40647 1.18139C1.88157 0.678558 2.53108 0.376584 3.22175 0.337419L3.37508 0.333252H14.6251H3.37508ZM16.0834 4.81075L9.29175 8.38575C9.21506 8.42626 9.13078 8.45037 9.04427 8.45654C8.95776 8.46271 8.87091 8.4508 8.78925 8.42159L8.70925 8.38658L1.91675 4.81158V10.9583C1.91676 11.3242 2.05439 11.6768 2.30231 11.9461C2.55024 12.2153 2.89033 12.3815 3.25508 12.4116L3.37508 12.4166H14.6251C14.9912 12.4166 15.3439 12.2788 15.6132 12.0307C15.8824 11.7826 16.0485 11.4423 16.0784 11.0774L16.0834 10.9583V4.81075ZM14.6251 1.58325H3.37508C3.00909 1.58327 2.65648 1.72089 2.38726 1.96882C2.11803 2.21674 1.95186 2.55683 1.92175 2.92159L1.91675 3.04158V3.39908L9.00008 7.12659L16.0834 3.39825V3.04158C16.0834 2.67546 15.9456 2.32274 15.6975 2.0535C15.4494 1.78425 15.1091 1.61817 14.7442 1.58825L14.6251 1.58325Z" fill="#3F4E65"></path>
    </symbol>
    <symbol fill="none" xmlns="http://www.w3.org/2000/svg" viewBox="0 0 16 18" id="location">
        <path d="M8 9.8335C9.38071 9.8335 10.5 8.71421 10.5 7.3335C10.5 5.95278 9.38071 4.8335 8 4.8335C6.61929 4.8335 5.5 5.95278 5.5 7.3335C5.5 8.71421 6.61929 9.8335 8 9.8335Z" stroke="#3F4E65" stroke-width="1.3" stroke-linecap="round" stroke-linejoin="round"></path>
        <path d="M7.99992 0.666748C6.23181 0.666748 4.53612 1.36913 3.28587 2.61937C2.03563 3.86961 1.33325 5.5653 1.33325 7.33342C1.33325 8.91008 1.66825 9.94175 2.58325 11.0834L7.99992 17.3334L13.4166 11.0834C14.3316 9.94175 14.6666 8.91008 14.6666 7.33342C14.6666 5.5653 13.9642 3.86961 12.714 2.61937C11.4637 1.36913 9.76803 0.666748 7.99992 0.666748V0.666748Z" stroke="#3F4E65" stroke-width="1.3" stroke-linecap="round" stroke-linejoin="round"></path>
    </symbol>
    <symbol fill="none" xmlns="http://www.w3.org/2000/svg" viewBox="0 0 14 14" id="search_grey">
        <path d="M13.125 13.125L10.3212 10.3162L13.125 13.125ZM11.875 6.5625C11.875 7.97146 11.3153 9.32272 10.319 10.319C9.32272 11.3153 7.97146 11.875 6.5625 11.875C5.15354 11.875 3.80228 11.3153 2.806 10.319C1.80971 9.32272 1.25 7.97146 1.25 6.5625C1.25 5.15354 1.80971 3.80228 2.806 2.806C3.80228 1.80971 5.15354 1.25 6.5625 1.25C7.97146 1.25 9.32272 1.80971 10.319 2.806C11.3153 3.80228 11.875 5.15354 11.875 6.5625V6.5625Z" stroke="#3F4E65" stroke-linecap="round"></path>
    </symbol>
    <symbol fill="none" xmlns="http://www.w3.org/2000/svg" viewBox="0 0 16 16" id="search_white">
        <path d="M15.5297 15.5294L12.0992 12.0928L15.5297 15.5294ZM14.0002 7.5C14.0002 9.22391 13.3154 10.8772 12.0964 12.0962C10.8775 13.3152 9.22415 14 7.50024 14C5.77634 14 4.12304 13.3152 2.90405 12.0962C1.68506 10.8772 1.00024 9.22391 1.00024 7.5C1.00024 5.77609 1.68506 4.12279 2.90405 2.90381C4.12304 1.68482 5.77634 1 7.50024 1C9.22415 1 10.8775 1.68482 12.0964 2.90381C13.3154 4.12279 14.0002 5.77609 14.0002 7.5V7.5Z" stroke="white" stroke-width="1.3" stroke-linecap="round"></path>
    </symbol>
    <symbol xmlns="http://www.w3.org/2000/svg" viewBox="0 0 384 512" id="tenge">
        <path d="M0 64C0 46.33 14.33 32 32 32H352C369.7 32 384 46.33 384 64C384 81.67 369.7 96 352 96H32C14.33 96 0 81.67 0 64zM0 192C0 174.3 14.33 160 32 160H352C369.7 160 384 174.3 384 192C384 209.7 369.7 224 352 224H224V448C224 465.7 209.7 480 192 480C174.3 480 160 465.7 160 448V224H32C14.33 224 0 209.7 0 192z"></path>
    </symbol>
    <symbol fill="none" xmlns="http://www.w3.org/2000/svg" viewBox="0 0 8 15" id="arrow_white_right">
        <path d="M0 12.8571L5 7.5L0 2.14286L1 0L8 7.5L1 15L0 12.8571Z" fill="white"></path>
    </symbol>
    <symbol fill="none" xmlns="http://www.w3.org/2000/svg" viewBox="0 0 61 39" id="mastercard">
        <g clip-path="url(#clip0_81_53)">
            <rect width="60.9375" height="39" rx="3" fill="#0F3560"></rect>
            <path d="M35.5658 29.12H24.8633V9.88574H35.5658V29.12Z" fill="#FF5F00"></path>
            <path d="M25.5488 19.5013C25.5488 15.5995 27.3757 12.124 30.2205 9.88416C28.1402 8.2463 25.5146 7.26873 22.6612 7.26873C15.906 7.26873 10.4302 12.7454 10.4302 19.5013C10.4302 26.2573 15.906 31.7339 22.6612 31.7339C25.5146 31.7339 28.1402 30.7563 30.2205 29.1185C27.3757 26.8787 25.5488 23.4031 25.5488 19.5013Z" fill="#EB001B"></path>
            <path d="M50.0004 19.5013C50.0004 26.2573 44.5245 31.7339 37.7693 31.7339C34.9159 31.7339 32.2904 30.7563 30.2092 29.1185C33.0549 26.8787 34.8817 23.4031 34.8817 19.5013C34.8817 15.5995 33.0549 12.124 30.2092 9.88416C32.2904 8.2463 34.9159 7.26873 37.7693 7.26873C44.5245 7.26873 50.0004 12.7454 50.0004 19.5013Z" fill="#F79E1B"></path>
            <path d="M19.6338 19.5789C19.6338 19.0446 19.9839 18.6056 20.5561 18.6056C21.1028 18.6056 21.4718 19.0257 21.4718 19.5789C21.4718 20.1321 21.1028 20.5522 20.5561 20.5522C19.9839 20.5522 19.6338 20.1132 19.6338 19.5789ZM22.095 19.5789V18.0589H21.434V18.428C21.2243 18.1543 20.9062 17.9825 20.4738 17.9825C19.6214 17.9825 18.9531 18.6508 18.9531 19.5789C18.9531 20.5078 19.6214 21.1753 20.4738 21.1753C20.9062 21.1753 21.2243 21.0035 21.434 20.7298V21.0989H22.095V19.5789ZM44.4314 19.5789C44.4314 19.0446 44.7815 18.6056 45.3537 18.6056C45.9011 18.6056 46.2695 19.0257 46.2695 19.5789C46.2695 20.1321 45.9011 20.5522 45.3537 20.5522C44.7815 20.5522 44.4314 20.1132 44.4314 19.5789ZM46.8933 19.5789V16.8382H46.2316V18.428C46.022 18.1543 45.7039 17.9825 45.2715 17.9825C44.419 17.9825 43.7508 18.6508 43.7508 19.5789C43.7508 20.5078 44.419 21.1753 45.2715 21.1753C45.7039 21.1753 46.022 21.0035 46.2316 20.7298V21.0989H46.8933V19.5789ZM30.2997 18.5743C30.7255 18.5743 30.9993 18.8415 31.0691 19.3117H29.4917C29.5623 18.8728 29.8287 18.5743 30.2997 18.5743ZM30.3128 17.9825C29.4218 17.9825 28.7987 18.6311 28.7987 19.5789C28.7987 20.5456 29.4473 21.1753 30.3572 21.1753C30.8151 21.1753 31.2344 21.061 31.6035 20.7494L31.2795 20.2595C31.0247 20.4626 30.7001 20.5776 30.3951 20.5776C29.9692 20.5776 29.5812 20.3804 29.4858 19.833H31.7432C31.7498 19.7507 31.7563 19.6677 31.7563 19.5789C31.7498 18.6311 31.1645 17.9825 30.3128 17.9825ZM38.294 19.5789C38.294 19.0446 38.6442 18.6056 39.2164 18.6056C39.7631 18.6056 40.1321 19.0257 40.1321 19.5789C40.1321 20.1321 39.7631 20.5522 39.2164 20.5522C38.6442 20.5522 38.294 20.1132 38.294 19.5789ZM40.7552 19.5789V18.0589H40.0943V18.428C39.8839 18.1543 39.5665 17.9825 39.1341 17.9825C38.2817 17.9825 37.6134 18.6508 37.6134 19.5789C37.6134 20.5078 38.2817 21.1753 39.1341 21.1753C39.5665 21.1753 39.8839 21.0035 40.0943 20.7298V21.0989H40.7552V19.5789ZM34.5611 19.5789C34.5611 20.5012 35.2032 21.1753 36.183 21.1753C36.6409 21.1753 36.9459 21.0734 37.2764 20.8128L36.959 20.2785C36.7108 20.4568 36.4501 20.5522 36.1633 20.5522C35.6356 20.5456 35.2476 20.1642 35.2476 19.5789C35.2476 18.9936 35.6356 18.6122 36.1633 18.6056C36.4501 18.6056 36.7108 18.701 36.959 18.8793L37.2764 18.345C36.9459 18.0844 36.6409 17.9825 36.183 17.9825C35.2032 17.9825 34.5611 18.6566 34.5611 19.5789ZM43.0832 17.9825C42.7018 17.9825 42.4536 18.1608 42.2818 18.428V18.0589H41.6266V21.0989H42.2883V19.3947C42.2883 18.8917 42.5045 18.6122 42.9369 18.6122C43.0709 18.6122 43.2106 18.6311 43.3504 18.6886L43.5542 18.0655C43.4079 18.008 43.2172 17.9825 43.0832 17.9825ZM25.3642 18.3006C25.0461 18.091 24.6078 17.9825 24.1245 17.9825C23.3543 17.9825 22.8586 18.3516 22.8586 18.9558C22.8586 19.4515 23.2277 19.7572 23.9076 19.8526L24.2198 19.897C24.5824 19.948 24.7534 20.0433 24.7534 20.2151C24.7534 20.4503 24.5118 20.5842 24.0604 20.5842C23.6025 20.5842 23.2721 20.4379 23.0493 20.2661L22.7377 20.7807C23.1003 21.0479 23.5581 21.1753 24.0539 21.1753C24.9318 21.1753 25.4406 20.7618 25.4406 20.1831C25.4406 19.6488 25.0402 19.3692 24.3785 19.2739L24.067 19.2288C23.7809 19.1909 23.5516 19.1341 23.5516 18.9303C23.5516 18.7075 23.7678 18.5743 24.1303 18.5743C24.5183 18.5743 24.8939 18.7206 25.0781 18.8349L25.3642 18.3006ZM33.8929 17.9825C33.5114 17.9825 33.2632 18.1608 33.0921 18.428V18.0589H32.437V21.0989H33.0979V19.3947C33.0979 18.8917 33.3141 18.6122 33.7465 18.6122C33.8805 18.6122 34.0202 18.6311 34.16 18.6886L34.3638 18.0655C34.2175 18.008 34.0268 17.9825 33.8929 17.9825ZM28.252 18.0589H27.171V17.1366H26.5027V18.0589H25.8861V18.6631H26.5027V20.0499C26.5027 20.7553 26.7764 21.1753 27.5582 21.1753C27.845 21.1753 28.1755 21.0865 28.3852 20.9402L28.1945 20.3738C27.9972 20.4881 27.781 20.5456 27.6092 20.5456C27.2787 20.5456 27.171 20.3418 27.171 20.0368V18.6631H28.252V18.0589ZM18.3686 21.0989V19.1909C18.3686 18.4724 17.9107 17.9891 17.1726 17.9825C16.7846 17.9759 16.3842 18.0968 16.1039 18.5234C15.8943 18.1863 15.5638 17.9825 15.0994 17.9825C14.7747 17.9825 14.4573 18.0779 14.2091 18.4338V18.0589H13.5474V21.0989H14.2149V19.4137C14.2149 18.8859 14.5075 18.6056 14.9596 18.6056C15.3985 18.6056 15.6206 18.8917 15.6206 19.4071V21.0989H16.2888V19.4137C16.2888 18.8859 16.5938 18.6056 17.0328 18.6056C17.4841 18.6056 17.7003 18.8917 17.7003 19.4071V21.0989H18.3686Z" fill="white"></path>
        </g>
        <defs>
            <clipPath id="clip0_81_53">
                <rect width="61" height="39" fill="white"></rect>
            </clipPath>
        </defs>
    </symbol>
    <symbol fill="none" xmlns="http://www.w3.org/2000/svg" viewBox="0 0 39 39" id="telegram">
        <path d="M19.5 0C8.73036 0 0 8.73036 0 19.5C0 30.2696 8.73036 39 19.5 39C30.2696 39 39 30.2696 39 19.5C39 8.73036 30.2696 0 19.5 0Z" fill="#40B3E0"></path>
        <path d="M28.9884 11.2169L25.5054 28.7774C25.5054 28.7774 25.0183 29.9953 23.6788 29.4107L15.6414 23.2487L12.7188 21.8362L7.79905 20.1799C7.79905 20.1799 7.04404 19.9121 6.97091 19.3275C6.89779 18.743 7.82343 18.4264 7.82343 18.4264L27.3807 10.7544C27.3807 10.7544 28.9882 10.0481 28.9882 11.2172" fill="white"></path>
        <path d="M15.0237 28.5799C15.0237 28.5799 14.7891 28.558 14.4966 27.6324C14.2046 26.7069 12.7188 21.8358 12.7188 21.8358L24.5312 14.3344C24.5312 14.3344 25.2132 13.9204 25.1888 14.3344C25.1888 14.3344 25.3106 14.4075 24.9451 14.7485C24.5799 15.0896 15.6658 23.1024 15.6658 23.1024" fill="#D2E5F1"></path>
        <path d="M18.7233 25.6112L15.5443 28.5097C15.5443 28.5097 15.2957 28.6983 15.0239 28.5801L15.6327 23.1963" fill="#B5CFE4"></path>
    </symbol>
    <symbol fill="none" xmlns="http://www.w3.org/2000/svg" viewBox="0 0 61 39" id="visa">
        <rect width="60.9375" height="39" rx="3" fill="#00579F"></rect>
        <path d="M27.3813 26.6927H23.6296L25.9762 13.2432H29.7276L27.3813 26.6927Z" fill="white"></path>
        <path d="M40.9812 13.5726C40.2412 13.3005 39.0675 13 37.6163 13C33.9114 13 31.3025 14.8313 31.2865 17.4496C31.2557 19.3813 33.1544 20.4542 34.5744 21.0983C36.0259 21.7565 36.5193 22.1861 36.5193 22.7728C36.5045 23.6738 35.3464 24.0891 34.2663 24.0891C32.7685 24.0891 31.9659 23.875 30.7463 23.3737L30.2523 23.1588L29.7273 26.178C30.6072 26.5495 32.2283 26.8793 33.9114 26.8937C37.8479 26.8937 40.4106 25.0908 40.441 22.3006C40.456 20.7695 39.4534 19.5964 37.2919 18.6378C35.9797 18.0224 35.1762 17.6074 35.1762 16.9778C35.1916 16.4054 35.8558 15.8191 37.337 15.8191C38.5567 15.7903 39.4528 16.0621 40.1316 16.334L40.471 16.4769L40.9812 13.5726Z" fill="white"></path>
        <path d="M45.9675 21.928C46.2764 21.1553 47.4653 18.1649 47.4653 18.1649C47.4497 18.1936 47.7737 17.378 47.9589 16.8773L48.2211 18.0362C48.2211 18.0362 48.9315 21.2556 49.0858 21.928C48.4995 21.928 46.7085 21.928 45.9675 21.928ZM50.5984 13.2432H47.6965C46.8016 13.2432 46.1218 13.4862 45.7357 14.3591L40.1631 26.6925H44.0996C44.0996 26.6925 44.7476 25.0325 44.8869 24.675C45.3188 24.675 49.1482 24.675 49.7037 24.675C49.8114 25.1472 50.1514 26.6925 50.1514 26.6925H53.625L50.5984 13.2432Z" fill="white"></path>
        <path d="M20.4961 13.2432L16.822 22.4144L16.4205 20.5544C15.7413 18.4082 13.611 16.0763 11.2336 14.9168L14.599 26.6784H18.5662L24.4631 13.2432H20.4961Z" fill="white"></path>
        <path d="M13.4103 13.2432H7.37425L7.3125 13.5149C12.021 14.631 15.1393 17.3213 16.4205 20.555L15.1083 14.3737C14.8923 13.5147 14.2284 13.2715 13.4103 13.2432Z" fill="#FAA61A"></path>
    </symbol>
    <symbol fill="none" xmlns="http://www.w3.org/2000/svg" viewBox="0 0 39 39" id="whatsapp">
        <rect width="39" height="39" rx="19.5" fill="#00E676"></rect>
        <path d="M27.6784 11.3568C25.5476 9.18112 22.6022 8 19.594 8C13.2017 8 8.06271 13.1594 8.12533 19.4378C8.12533 21.427 8.68936 23.3541 9.62947 25.0946L8 31L14.079 29.4459C15.7711 30.3784 17.6511 30.8136 19.5314 30.8136C25.861 30.8136 31 25.654 31 19.3758C31 16.3298 29.8092 13.4703 27.6785 11.3568H27.6784ZM19.594 28.8866C17.9019 28.8866 16.2098 28.4515 14.7684 27.5812L14.3924 27.3947L10.7575 28.3271L11.6976 24.7839L11.4469 24.4109C8.68936 19.9974 10.0055 14.154 14.5177 11.4189C19.0299 8.68377 24.8583 9.98921 27.6158 14.4649C30.3733 18.9405 29.0572 24.7216 24.545 27.4568C23.1035 28.3892 21.3488 28.8865 19.594 28.8865V28.8866ZM25.1089 21.9866L24.4196 21.6758C24.4196 21.6758 23.4169 21.2407 22.7902 20.9298C22.7275 20.9298 22.6649 20.8676 22.6022 20.8676C22.4141 20.8676 22.2888 20.9298 22.1635 20.992C22.1635 20.992 22.1008 21.0541 21.2234 22.0488C21.1607 22.1731 21.0354 22.2353 20.9101 22.2353H20.8474C20.7847 22.2353 20.6594 22.1731 20.5967 22.111L20.2833 21.9866C19.594 21.6758 18.9673 21.3028 18.4659 20.8055C18.3406 20.6812 18.1525 20.5569 18.0272 20.4326C17.5885 19.9974 17.1498 19.5001 16.8365 18.9406L16.7738 18.8163C16.7112 18.7541 16.7112 18.692 16.6485 18.5677C16.6485 18.4434 16.6485 18.3191 16.7112 18.2569C16.7112 18.2569 16.9619 17.946 17.1498 17.7596C17.2752 17.6352 17.3379 17.4488 17.4632 17.3245C17.5885 17.1379 17.6512 16.8893 17.5885 16.7028C17.5259 16.392 16.7738 14.7136 16.5859 14.3406C16.4605 14.1541 16.3352 14.092 16.1472 14.0298H15.4578C15.3324 14.0298 15.2072 14.092 15.0817 14.092L15.019 14.1541C14.8937 14.2163 14.7684 14.3406 14.643 14.4028C14.5177 14.5272 14.455 14.6514 14.3297 14.7758C13.891 15.3353 13.6403 16.019 13.6403 16.7028C13.6403 17.2001 13.7656 17.6974 13.9537 18.1325L14.0164 18.3191C14.5804 19.5001 15.3324 20.5569 16.3352 21.4893L16.5859 21.7379C16.7738 21.9244 16.9619 22.0488 17.0872 22.2352C18.4033 23.3542 19.9073 24.1623 21.5994 24.5974C21.7875 24.6595 22.0381 24.6595 22.2262 24.7217H22.8528C23.1662 24.7217 23.5422 24.5974 23.7929 24.4731C23.9809 24.3488 24.1062 24.3488 24.2315 24.2245L24.357 24.1001C24.4823 23.9758 24.6076 23.9136 24.733 23.7893C24.8583 23.665 24.9836 23.5407 25.0463 23.4163C25.1717 23.1677 25.2343 22.8568 25.297 22.5461V22.111C25.297 22.111 25.2343 22.0488 25.1089 21.9866Z" fill="white"></path>
    </symbol>
    <symbol fill="none" xmlns="http://www.w3.org/2000/svg" viewBox="0 0 9 15" id="bottle">
        <path d="M8.1 14.0625C8.05312 14.3164 7.95234 14.5361 7.79766 14.7217C7.64297 14.9072 7.44375 15 7.2 15H1.8C1.55625 15 1.35938 14.9097 1.20938 14.729C1.05937 14.5483 0.95625 14.3262 0.9 14.0625L0 8.4375V6.5625C0 6.2793 0.0914062 6.04492 0.274219 5.85938C0.457031 5.67383 0.726562 5.49072 1.08281 5.31006C1.43906 5.12939 1.65937 5.00977 1.74375 4.95117C2.11875 4.67773 2.45625 4.35547 2.75625 3.98438C3.05625 3.61328 3.27656 3.22266 3.41719 2.8125H3.15C3.02812 2.8125 2.92266 2.76611 2.83359 2.67334C2.74453 2.58057 2.7 2.4707 2.7 2.34375V0.46875C2.7 0.341797 2.74453 0.231934 2.83359 0.13916C2.92266 0.0463867 3.02812 0 3.15 0H5.85C5.97187 0 6.07734 0.0463867 6.16641 0.13916C6.25547 0.231934 6.3 0.341797 6.3 0.46875V2.34375C6.3 2.4707 6.25547 2.58057 6.16641 2.67334C6.07734 2.76611 5.97187 2.8125 5.85 2.8125H5.58281C5.86406 3.60352 6.38437 4.28711 7.14375 4.86328C7.24687 4.95117 7.48125 5.08789 7.84687 5.27344C8.2125 5.45898 8.49609 5.64941 8.69766 5.84473C8.89922 6.04004 9 6.2793 9 6.5625V8.4375L8.1 14.0625Z" fill="#3F4E65"></path>
    </symbol>
    <symbol fill="none" xmlns="http://www.w3.org/2000/svg" viewBox="0 0 20 14" id="box">
        <path d="M13.303 7.00018C12.7749 7.00018 12.278 6.71893 12.0092 6.26893L9.99986 2.93768L7.99361 6.26893C7.72173 6.72205 7.22486 7.0033 6.69673 7.0033C6.55611 7.0033 6.41548 6.98455 6.28111 6.94393L1.99986 5.71893V11.2814C1.99986 11.7408 2.31236 12.1408 2.75611 12.2502L9.51236 13.9408C9.83111 14.0189 10.1655 14.0189 10.4811 13.9408L17.2436 12.2502C17.6874 12.1377 17.9999 11.7377 17.9999 11.2814V5.71893L13.7186 6.9408C13.5842 6.98143 13.4436 7.00018 13.303 7.00018ZM19.9467 3.49393L18.3374 0.281429C18.2405 0.0876786 18.0311 -0.0248215 17.8155 0.00330353L9.99986 1.00018L12.8655 5.7533C12.9842 5.95018 13.2217 6.04393 13.4436 5.98143L19.628 4.2158C19.9374 4.12518 20.0874 3.78143 19.9467 3.49393ZM1.66236 0.281429L0.0529828 3.49393C-0.0907672 3.78143 0.0623578 4.12518 0.368608 4.21268L6.55298 5.9783C6.77486 6.0408 7.01236 5.94705 7.13111 5.75018L9.99986 1.00018L2.18111 0.00330353C1.96548 -0.0216965 1.75923 0.0876786 1.66236 0.281429Z" fill="#3F4E65"></path>
    </symbol>
    <symbol fill="none" xmlns="http://www.w3.org/2000/svg" viewBox="0 0 14 18" id="list">
        <path d="M3.25 0.25C2.58696 0.25 1.95107 0.513392 1.48223 0.982233C1.01339 1.45107 0.75 2.08696 0.75 2.75V15.25C0.75 15.913 1.01339 16.5489 1.48223 17.0178C1.95107 17.4866 2.58696 17.75 3.25 17.75H10.75C11.413 17.75 12.0489 17.4866 12.5178 17.0178C12.9866 16.5489 13.25 15.913 13.25 15.25V5.7675C13.2496 5.27039 13.0517 4.79379 12.7 4.4425L9.05875 0.79875C8.88455 0.624667 8.67777 0.486604 8.45021 0.392449C8.22265 0.298293 7.97877 0.249889 7.7325 0.25H3.25ZM2 2.75C2 2.41848 2.1317 2.10054 2.36612 1.86612C2.60054 1.6317 2.91848 1.5 3.25 1.5H7V4.625C7 5.12228 7.19754 5.59919 7.54917 5.95083C7.90081 6.30246 8.37772 6.5 8.875 6.5H12V15.25C12 15.5815 11.8683 15.8995 11.6339 16.1339C11.3995 16.3683 11.0815 16.5 10.75 16.5H3.25C2.91848 16.5 2.60054 16.3683 2.36612 16.1339C2.1317 15.8995 2 15.5815 2 15.25V2.75ZM11.7413 5.25H8.875C8.70924 5.25 8.55027 5.18415 8.43306 5.06694C8.31585 4.94973 8.25 4.79076 8.25 4.625V1.75875L11.7413 5.25Z" fill="#3F4E65"></path>
    </symbol>
    <symbol fill="none" xmlns="http://www.w3.org/2000/svg" viewBox="0 0 15 15" id="pencil">
        <g opacity="0.9">
            <path d="M12.93 4.60176L10.3976 2.06944C10.3626 2.03442 10.3211 2.00664 10.2754 1.98769C10.2296 1.96874 10.1806 1.95898 10.1311 1.95898C10.0816 1.95898 10.0326 1.96874 9.98682 1.98769C9.94108 2.00664 9.89952 2.03442 9.86452 2.06944L2.93382 9L2.94908 9.01526L2.92514 9.00882L1.97706 12.5469L1.97762 12.547C1.95536 12.6132 1.95197 12.6842 1.96785 12.7522C1.98373 12.8201 2.01824 12.8823 2.0675 12.9318C2.1221 12.9862 2.19213 13.0226 2.26809 13.0359C2.34406 13.0492 2.42227 13.0388 2.49212 13.0061L2.4924 13.0074L5.99618 12.0685L5.99394 12.0603L5.99926 12.0656L12.93 5.13488C12.965 5.09988 12.9928 5.05832 13.0117 5.01258C13.0307 4.96685 13.0404 4.91782 13.0404 4.86832C13.0404 4.81881 13.0307 4.76978 13.0117 4.72405C12.9928 4.67831 12.965 4.63675 12.93 4.60176ZM3.13024 11.8608L3.69332 9.7595L5.23164 11.2978L3.13024 11.8608Z" fill="white"></path>
        </g>
        <symbol fill="none" xmlns="http://www.w3.org/2000/svg" viewBox="0 0 20 21" id="send_to">
            <path d="M4.00004 13.5C4.87469 13.4974 5.71626 13.1653 6.35704 12.57L12.617 16.147C12.4073 16.9666 12.4998 17.8343 12.8775 18.5913C13.2552 19.3483 13.893 19.9439 14.674 20.2692C15.455 20.5944 16.327 20.6274 17.1304 20.3623C17.9338 20.0971 18.6148 19.5515 19.0488 18.8252C19.4827 18.099 19.6406 17.2408 19.4935 16.4076C19.3464 15.5745 18.9042 14.8222 18.2478 14.2885C17.5914 13.7548 16.7647 13.4753 15.919 13.5013C15.0734 13.5273 14.2655 13.857 13.643 14.43L7.38304 10.853C7.44904 10.603 7.48504 10.344 7.49104 10.085L13.641 6.56996C14.2332 7.10874 14.9927 7.42747 15.792 7.47268C16.5913 7.51789 17.3818 7.28684 18.031 6.81828C18.6802 6.34972 19.1484 5.67217 19.3572 4.89929C19.5661 4.1264 19.5027 3.30522 19.1779 2.5735C18.853 1.84178 18.2864 1.24404 17.5731 0.88056C16.8597 0.517083 16.0431 0.409982 15.2602 0.577226C14.4772 0.744469 13.7756 1.17588 13.2731 1.79909C12.7705 2.42229 12.4976 3.19937 12.5 3.99996C12.504 4.28796 12.543 4.57497 12.617 4.85296L6.93304 8.09997C6.60341 7.59003 6.1468 7.17461 5.60805 6.89454C5.06931 6.61446 4.46697 6.47936 3.86021 6.50251C3.25346 6.52566 2.66316 6.70627 2.14732 7.02658C1.63148 7.34689 1.20785 7.79589 0.918041 8.32946C0.628232 8.86303 0.48222 9.46282 0.494351 10.0699C0.506482 10.677 0.676338 11.2704 0.98723 11.792C1.29812 12.3136 1.73936 12.7453 2.26758 13.0447C2.7958 13.3442 3.39284 13.5011 4.00004 13.5Z" fill="#FFC85E"></path>
        </symbol>
        <symbol fill="none" xmlns="http://www.w3.org/2000/svg" viewBox="0 0 7 6" id="triangle_grey_down">
            <path d="M3.5 6L0.468911 0.750001L6.53109 0.75L3.5 6Z" fill="#3F4E65"></path>
        </symbol>
        <symbol fill="none" xmlns="http://www.w3.org/2000/svg" viewBox="0 0 25 25" id="trash">
            <path d="M15.625 6.25H20.3125C20.5197 6.25 20.7184 6.33231 20.8649 6.47882C21.0114 6.62534 21.0938 6.82405 21.0938 7.03125C21.0938 7.23845 21.0114 7.43716 20.8649 7.58368C20.7184 7.73019 20.5197 7.8125 20.3125 7.8125H19.4484L18.2734 18.4C18.1673 19.3555 17.7125 20.2384 16.9961 20.8795C16.2797 21.5207 15.352 21.8751 14.3906 21.875H10.6094C9.64797 21.8751 8.72029 21.5207 8.00389 20.8795C7.28749 20.2384 6.8327 19.3555 6.72656 18.4L5.55 7.8125H4.6875C4.4803 7.8125 4.28159 7.73019 4.13507 7.58368C3.98856 7.43716 3.90625 7.23845 3.90625 7.03125C3.90625 6.82405 3.98856 6.62534 4.13507 6.47882C4.28159 6.33231 4.4803 6.25 4.6875 6.25H9.375C9.375 5.4212 9.70424 4.62634 10.2903 4.04029C10.8763 3.45424 11.6712 3.125 12.5 3.125C13.3288 3.125 14.1237 3.45424 14.7097 4.04029C15.2958 4.62634 15.625 5.4212 15.625 6.25ZM12.5 4.6875C12.0856 4.6875 11.6882 4.85212 11.3951 5.14515C11.1021 5.43817 10.9375 5.8356 10.9375 6.25H14.0625C14.0625 5.8356 13.8979 5.43817 13.6049 5.14515C13.3118 4.85212 12.9144 4.6875 12.5 4.6875ZM10.1562 10.9375V17.1875C10.1562 17.3947 10.2386 17.5934 10.3851 17.7399C10.5316 17.8864 10.7303 17.9688 10.9375 17.9688C11.1447 17.9688 11.3434 17.8864 11.4899 17.7399C11.6364 17.5934 11.7188 17.3947 11.7188 17.1875V10.9375C11.7188 10.7303 11.6364 10.5316 11.4899 10.3851C11.3434 10.2386 11.1447 10.1562 10.9375 10.1562C10.7303 10.1562 10.5316 10.2386 10.3851 10.3851C10.2386 10.5316 10.1562 10.7303 10.1562 10.9375ZM14.0625 10.1562C13.8553 10.1562 13.6566 10.2386 13.5101 10.3851C13.3636 10.5316 13.2812 10.7303 13.2812 10.9375V17.1875C13.2812 17.3947 13.3636 17.5934 13.5101 17.7399C13.6566 17.8864 13.8553 17.9688 14.0625 17.9688C14.2697 17.9688 14.4684 17.8864 14.6149 17.7399C14.7614 17.5934 14.8438 17.3947 14.8438 17.1875V10.9375C14.8438 10.7303 14.7614 10.5316 14.6149 10.3851C14.4684 10.2386 14.2697 10.1562 14.0625 10.1562Z" fill="white"></path>
        </symbol>
        <symbol fill="none" xmlns="http://www.w3.org/2000/svg" viewBox="0 0 15 15" id="wallet">
            <path d="M3.50517 3.04146L9.48495 1.40923L9.16828 0.769143C8.96109 0.353085 8.45576 0.181271 8.0397 0.388458L2.68652 3.04146H3.50517Z" fill="#3F4E65"></path>
            <path d="M11.3413 1.4563C11.2672 1.4563 11.1931 1.46641 11.1189 1.48662L9.71413 1.87067L5.42383 3.04136H10.2936H12.416L12.1532 2.07786C12.0521 1.70223 11.7119 1.4563 11.3413 1.4563Z" fill="#3F4E65"></path>
            <path d="M13.2937 3.6311H13.1016H12.8405H12.5794H10.5867H3.26446H2.30432H1.49579H1.34587H0.843908C0.577765 3.6311 0.340258 3.75407 0.185289 3.94778C0.114542 4.03706 0.0606401 4.13981 0.03032 4.25266C0.0117911 4.32341 0 4.39753 0 4.47333V4.57439V5.53453V13.8574C0 14.3223 0.377316 14.6996 0.842224 14.6996H13.292C13.7569 14.6996 14.1342 14.3223 14.1342 13.8574V11.5076H9.13644C8.34644 11.5076 7.70466 10.8658 7.70466 10.0758V9.30432V9.04323V8.78214V8.20269C7.70466 7.81527 7.85961 7.46324 8.11061 7.20552C8.33296 6.97642 8.63111 6.82145 8.96463 6.7827C9.02021 6.77598 9.07749 6.7726 9.13476 6.7726H13.4335H13.6946H13.9556H14.1342V4.47333C14.1359 4.00842 13.7586 3.6311 13.2937 3.6311Z" fill="#3F4E65"></path>
            <path d="M14.7252 7.57758C14.6409 7.50009 14.5415 7.44114 14.4304 7.4024C14.3445 7.37378 14.2535 7.35693 14.1575 7.35693H14.1356H14.1188H13.8577H12.9161H9.13617C8.67124 7.35693 8.29395 7.73423 8.29395 8.19916V8.61857V8.87966V9.14075V10.0739C8.29395 10.5388 8.67124 10.9162 9.13617 10.9162H14.1356H14.1575C14.2535 10.9162 14.3445 10.8993 14.4304 10.8707C14.5415 10.8336 14.6409 10.773 14.7252 10.6955C14.8936 10.5422 14.9997 10.3199 14.9997 10.0739V8.19916C14.9997 7.95321 14.8936 7.73085 14.7252 7.57758ZM10.8947 9.30414C10.8947 9.53659 10.7061 9.72525 10.4736 9.72525H10.194C9.96155 9.72525 9.77289 9.53659 9.77289 9.30414V9.02452C9.77289 8.88976 9.83521 8.77015 9.93459 8.69435C10.007 8.63877 10.0963 8.60341 10.194 8.60341H10.2647H10.4736C10.7061 8.60341 10.8947 8.79205 10.8947 9.02452V9.30414Z" fill="#3F4E65"></path>
        </symbol>
    </svg>