<svg width="15" height="15" viewBox="0 0 15 15" fill="none" xmlns="http://www.w3.org/2000/svg">
<path d="M3.50517 3.04146L9.48495 1.40923L9.16828 0.769143C8.96109 0.353085 8.45576 0.181271 8.0397 0.388458L2.68652 3.04146H3.50517Z" fill="#3F4E65"/>
<path d="M11.3413 1.4563C11.2672 1.4563 11.1931 1.46641 11.1189 1.48662L9.71413 1.87067L5.42383 3.04136H10.2936H12.416L12.1532 2.07786C12.0521 1.70223 11.7119 1.4563 11.3413 1.4563Z" fill="#3F4E65"/>
<path d="M13.2937 3.6311H13.1016H12.8405H12.5794H10.5867H3.26446H2.30432H1.49579H1.34587H0.843908C0.577765 3.6311 0.340258 3.75407 0.185289 3.94778C0.114542 4.03706 0.0606401 4.13981 0.03032 4.25266C0.0117911 4.32341 0 4.39753 0 4.47333V4.57439V5.53453V13.8574C0 14.3223 0.377316 14.6996 0.842224 14.6996H13.292C13.7569 14.6996 14.1342 14.3223 14.1342 13.8574V11.5076H9.13644C8.34644 11.5076 7.70466 10.8658 7.70466 10.0758V9.30432V9.04323V8.78214V8.20269C7.70466 7.81527 7.85961 7.46324 8.11061 7.20552C8.33296 6.97642 8.63111 6.82145 8.96463 6.7827C9.02021 6.77598 9.07749 6.7726 9.13476 6.7726H13.4335H13.6946H13.9556H14.1342V4.47333C14.1359 4.00842 13.7586 3.6311 13.2937 3.6311Z" fill="#3F4E65"/>
<path d="M14.7252 7.57758C14.6409 7.50009 14.5415 7.44114 14.4304 7.4024C14.3445 7.37378 14.2535 7.35693 14.1575 7.35693H14.1356H14.1188H13.8577H12.9161H9.13617C8.67124 7.35693 8.29395 7.73423 8.29395 8.19916V8.61857V8.87966V9.14075V10.0739C8.29395 10.5388 8.67124 10.9162 9.13617 10.9162H14.1356H14.1575C14.2535 10.9162 14.3445 10.8993 14.4304 10.8707C14.5415 10.8336 14.6409 10.773 14.7252 10.6955C14.8936 10.5422 14.9997 10.3199 14.9997 10.0739V8.19916C14.9997 7.95321 14.8936 7.73085 14.7252 7.57758ZM10.8947 9.30414C10.8947 9.53659 10.7061 9.72525 10.4736 9.72525H10.194C9.96155 9.72525 9.77289 9.53659 9.77289 9.30414V9.02452C9.77289 8.88976 9.83521 8.77015 9.93459 8.69435C10.007 8.63877 10.0963 8.60341 10.194 8.60341H10.2647H10.4736C10.7061 8.60341 10.8947 8.79205 10.8947 9.02452V9.30414Z" fill="#3F4E65"/>
</svg>
